<svg xmlns="http://www.w3.org/2000/svg" viewBox="0 0 298.27 39.13"><defs><style>.cls-1{fill:#415762;}.cls-2{fill:none;}.cls-3{fill:#121617;}.cls-4{fill:#2b2d6d;}.cls-5{fill:#6a3b92;}.cls-6{fill:#f08e24;}.cls-7{fill:#c6e5ec;}.cls-8{fill:#6cc7db;}.cls-9{fill:#ec5b2a;}.cls-10{fill:#1bbde4;}.cls-11{fill:#1e80bf;}.cls-12{fill:#a1d8e4;}.cls-13{fill:#2d4396;}.cls-14{fill:#e84237;}.cls-15{fill:#a0d8e6;}.cls-16{fill:#a8dbeb;}</style></defs><title>foot_logo</title><g id="Layer_2" data-name="Layer 2"><g id="Base"><path class="cls-1" d="M67.18,21l-5-7.95h3.37l3.13,5.26L71.83,13h3.28l-5,7.89v5.23H67.18Z"/><path class="cls-1" d="M84.76,18.29c-1.48,0-2.36-.6-2.36-1.62,0-.3.11-1.8,2.36-1.8,1.73,0,2.46.6,2.81,2.31h2.14l-.07-.44a4.5,4.5,0,0,0-4.87-4c-3.12,0-4.52,2-4.52,3.9a3.27,3.27,0,0,0,1.17,2.59,3.41,3.41,0,0,0-1.51,2.88c0,2.41,2.09,4.22,4.85,4.22,3.35,0,5.12-1.79,5.12-5.18v-.78h2.06V18.29Zm0,6c-1.59,0-2.69-.87-2.69-2.11,0-1.45,1.47-1.75,2.69-1.75h3v.78C87.74,23.39,86.9,24.25,84.76,24.25Z"/><path class="cls-1" d="M101.22,21l-5-7.95h3.37l3.13,5.26L105.87,13h3.28l-5,7.89v5.23h-2.89Z"/><path class="cls-1" d="M124.35,13h1.5l4.78,7.16L135.41,13h1.5V26.12h-1.48V15.5l-4.78,7h-.07l-4.78-7V26.12h-1.44Z"/><path class="cls-1" d="M149.22,12.91h1.39l6,13.21H155l-1.53-3.47h-7.14l-1.55,3.47h-1.52Zm3.65,8.42-3-6.69-3,6.69Z"/><path class="cls-1" d="M162.92,13h1.39l8.26,10.51V13H174V26.12h-1.18l-8.47-10.76V26.12h-1.44Z"/><path class="cls-1" d="M186.33,12.91h1.39l6,13.21h-1.59l-1.54-3.47h-7.14l-1.56,3.47h-1.51ZM190,21.33l-3-6.69-3,6.69Z"/><path class="cls-1" d="M198.68,19.6v0a6.58,6.58,0,0,1,6.58-6.78,6.92,6.92,0,0,1,4.89,1.74l-1,1.13a5.58,5.58,0,0,0-4-1.5,5.12,5.12,0,0,0-5,5.38v0c0,3.13,2,5.45,5.19,5.45a6.19,6.19,0,0,0,3.78-1.31V20.44h-4V19.11h5.42v5.23a8,8,0,0,1-5.27,2A6.43,6.43,0,0,1,198.68,19.6Z"/><path class="cls-1" d="M217.71,13h9.48v1.35h-8v4.48h7.16v1.35h-7.16v4.59h8.1v1.35h-9.58Z"/><path class="cls-1" d="M234,13h1.5l4.78,7.16L245.07,13h1.5V26.12h-1.48V15.5l-4.78,7h-.08l-4.78-7V26.12H234Z"/><path class="cls-1" d="M254,13h9.48v1.35h-8v4.48h7.15v1.35h-7.15v4.59h8.09v1.35H254Z"/><path class="cls-1" d="M270.34,13h1.38L280,23.52V13h1.44V26.12h-1.18l-8.47-10.76V26.12h-1.44Z"/><path class="cls-1" d="M292.37,14.37H288V13h10.31v1.37h-4.4V26.12h-1.5Z"/><polygon class="cls-2" points="18.07 7.82 13.55 7.82 18.07 15.63 18.07 7.82"/><polygon class="cls-2" points="36.14 0 27.11 0 27.11 0 31.63 7.82 40.66 7.82 36.14 0 36.14 0"/><polygon class="cls-2" points="18.07 7.82 18.07 0 9.04 0 13.55 7.82 18.07 7.82"/><polygon class="cls-2" points="27.11 23.48 31.63 23.48 27.11 15.65 27.11 23.48"/><polygon class="cls-2" points="22.59 23.45 22.59 15.65 18.08 15.65 22.59 23.45"/><polygon class="cls-2" points="22.59 7.82 18.07 7.82 18.07 15.63 18.08 15.65 22.59 15.65 22.59 7.83 22.59 7.82"/><polygon class="cls-2" points="22.59 7.82 18.07 0 18.07 7.82 22.59 7.82"/><polygon class="cls-2" points="22.59 15.65 27.11 15.65 22.59 7.83 22.59 15.65"/><polygon class="cls-2" points="27.11 31.27 27.11 23.48 22.61 23.48 27.11 31.27"/><polygon class="cls-2" points="27.11 15.65 22.59 15.65 22.59 23.45 22.61 23.48 27.11 23.48 27.11 15.65 27.11 15.65"/><rect class="cls-3" x="45.18"/><rect class="cls-4" x="40.66" y="7.82" width="0.01" height="0.01" transform="translate(0.83 19.13) rotate(-26.75)"/><polygon class="cls-5" points="40.66 0 36.14 0 36.14 0 40.66 7.82 40.66 7.82 40.66 0"/><polygon class="cls-6" points="36.14 0 36.14 0 36.14 0 36.14 0"/><polygon class="cls-4" points="40.66 0 40.66 7.82 40.66 7.82 45.18 0 40.66 0"/><polygon class="cls-5" points="40.66 7.82 40.66 7.82 40.66 7.82 40.66 7.82"/><polygon class="cls-7" points="31.63 15.65 31.63 23.48 36.14 15.65 36.14 15.65 36.14 15.65 31.63 15.65"/><polygon class="cls-8" points="36.14 15.65 36.14 15.63 31.63 7.82 31.63 15.65 36.14 15.65"/><polygon class="cls-9" points="36.14 15.65 36.15 15.65 36.14 15.65 36.14 15.65"/><circle class="cls-9" cx="36.15" cy="15.65" transform="translate(-2.11 6.28) rotate(-9.65)"/><polygon class="cls-5" points="22.59 7.82 22.59 0 18.07 0 22.59 7.82 22.59 7.82"/><polygon class="cls-10" points="22.59 7.82 22.59 7.82 22.59 7.83 22.59 7.82"/><polygon class="cls-8" points="27.11 15.65 27.11 15.65 27.11 15.65 27.11 15.65"/><polygon class="cls-11" points="22.59 7.83 27.11 15.65 27.11 15.65 27.11 7.82 22.59 7.82 22.59 7.83"/><polygon class="cls-4" points="27.11 7.82 27.11 0 27.11 0 22.59 0 22.59 7.82 27.11 7.82"/><polygon class="cls-10" points="27.11 15.65 31.63 15.65 31.63 7.82 31.63 7.82 27.11 7.82 27.11 15.65"/><polygon class="cls-12" points="27.11 15.65 27.11 15.65 31.63 23.48 31.63 15.65 27.11 15.65"/><polygon class="cls-13" points="27.11 7.82 31.63 7.82 27.11 0 27.11 7.82"/><polygon class="cls-5" points="4.52 0 0 0 0 0 4.51 7.82 4.52 7.82 4.52 0"/><polygon class="cls-5" points="4.51 7.82 4.52 7.83 4.52 7.82 4.51 7.82"/><polygon class="cls-13" points="9.04 7.82 4.52 7.82 4.52 7.83 9.03 15.65 9.04 15.65 9.04 7.82"/><polygon class="cls-4" points="9.03 15.65 9.04 15.65 9.04 15.65 9.03 15.65"/><rect class="cls-4" x="4.52" width="4.52" height="7.82"/><polygon class="cls-14" points="27.12 31.28 27.11 31.27 27.11 31.3 27.12 31.28"/><polygon class="cls-14" points="0 0 0 0 0 0 0 0"/><polygon class="cls-15" points="22.61 23.48 22.59 23.45 22.59 23.48 22.61 23.48"/><polygon class="cls-7" points="22.59 39.13 27.11 31.3 22.59 31.3 22.59 39.13"/><polygon class="cls-16" points="22.59 23.48 22.59 31.3 27.11 31.3 27.11 31.3 27.11 31.3 27.11 31.27 22.61 23.48 22.59 23.48"/><polygon class="cls-10" points="9.04 15.65 9.04 15.65 13.55 23.48 13.55 15.65 9.04 15.65"/><polygon class="cls-13" points="13.55 7.82 9.04 0 9.04 0 9.04 7.82 13.55 7.82"/><rect class="cls-11" x="9.04" y="7.82" width="4.52" height="7.83"/><polygon class="cls-8" points="22.59 39.13 22.59 39.13 22.59 39.13 22.59 39.13"/><polygon class="cls-12" points="18.07 15.65 18.07 23.48 22.59 23.48 22.59 23.45 18.08 15.65 18.07 15.65"/><rect class="cls-8" x="18.07" y="23.48" width="4.52" height="7.83"/><polygon class="cls-16" points="18.07 31.3 22.59 39.13 22.59 39.13 22.59 31.3 18.07 31.3"/><polygon class="cls-8" points="18.07 15.63 18.07 15.65 18.08 15.65 18.07 15.63"/><polygon class="cls-10" points="13.55 7.82 13.55 15.65 18.07 15.65 18.07 15.63 13.55 7.82"/><polygon class="cls-12" points="13.55 23.48 18.07 31.3 18.07 23.48 13.55 23.48"/><rect class="cls-8" x="13.55" y="15.65" width="4.52" height="7.83"/></g></g></svg>