<?xml version="1.0" encoding="utf-8"?>
<!-- Generator: Adobe Illustrator 19.0.0, SVG Export Plug-In . SVG Version: 6.00 Build 0)  -->
<svg version="1.1" id="Layer_1" xmlns="http://www.w3.org/2000/svg" xmlns:xlink="http://www.w3.org/1999/xlink" x="0px" y="0px"
	 viewBox="0 0 300 73.2" style="enable-background:new 0 0 300 73.2;" xml:space="preserve">
<style type="text/css">
	.st0{fill:#FFFFFF;}
</style>
<g id="XMLID_79_">
	<g>
		<g>
			<path class="st0" d="M23.1,41.3c-0.4,1-1,1.9-1.8,2.7c-0.9,0.8-2,1.5-3.3,1.8c-1.4,0.4-3.1,0.6-5.3,0.6H8.2v-16h5.3
				c1.7,0,3.1,0.1,4.2,0.4c1.1,0.2,2.1,0.6,3,1.2c1,0.6,1.7,1.5,2.2,2.5c0.5,1,0.7,2.2,0.7,3.6C23.7,39.3,23.5,40.4,23.1,41.3
				 M28,32.2c-0.8-1.5-2-2.8-3.6-3.8c-1.3-0.9-2.8-1.5-4.5-1.9c-1.7-0.4-3.7-0.6-6.1-0.6h-11v40.2h5.4v-15h5.4c2.9,0,5.3-0.3,7.2-1
				c1.9-0.7,3.5-1.7,4.9-3.1c1.1-1.1,2-2.4,2.6-4c0.6-1.5,0.9-3.2,0.9-5C29.2,35.7,28.8,33.7,28,32.2"/>
		</g>
		<g>
			<polygon id="XMLID_76_" class="st0" points="59.4,66.1 33.8,66.1 33.8,25.9 39.2,25.9 39.2,61.3 59.4,61.3 			"/>
		</g>
		<g>
			<path class="st0" d="M73.4,50.3l7.1-19.8l7.1,19.8H73.4z M84.2,25.9h-7.1L62.4,66.1h5.4l3.9-11.2h17.5l3.9,11.2h5.7L84.2,25.9z"
				/>
		</g>
		<g>
			<polygon id="XMLID_73_" class="st0" points="133.2,66.1 101.8,66.1 101.8,61.1 126.5,30.6 102.7,30.6 102.7,25.9 132.6,25.9 
				132.6,30.7 107.6,61.3 133.2,61.3 			"/>
		</g>
		<g>
			<path class="st0" d="M148,50.3l7.1-19.8l7.1,19.8H148z M158.8,25.9h-7.1L137,66.1h5.4l3.9-11.2h17.5l3.9,11.2h5.7L158.8,25.9z"/>
		</g>
		<g>
			<path class="st0" d="M189.8,54.3c0.1-1.4,0.6-2.5,1.5-3.4c0.9-0.9,2.1-1.4,3.6-1.4c1.5,0,2.6,0.4,3.4,1.3c0.7,0.8,1.1,2,1.1,3.5
				H189.8z M202.3,54.9c0-2.5-0.6-4.4-1.9-5.7c-1.2-1.3-3-2-5.3-2c-2.5,0-4.5,0.8-6,2.5c-1.5,1.6-2.3,3.8-2.3,6.6
				c0,2.8,0.8,5,2.4,6.5c1.6,1.5,3.8,2.3,6.6,2.3c1.1,0,2.2-0.1,3.2-0.4c1-0.3,2-0.6,3-1v-3.1h-0.2c-0.5,0.4-1.3,0.9-2.5,1.3
				c-1.2,0.5-2.3,0.7-3.5,0.7c-0.9,0-1.7-0.1-2.4-0.4c-0.7-0.2-1.3-0.6-1.9-1.1c-0.5-0.5-1-1.1-1.3-1.9c-0.3-0.8-0.5-1.7-0.5-2.7
				h12.5V54.9z"/>
		</g>
		<g>
			<path id="XMLID_68_" class="st0" d="M218.9,59.8c0,1.6-0.6,2.8-1.9,3.8c-1.3,1-3,1.5-5.3,1.5c-1.3,0-2.4-0.2-3.5-0.5
				c-1.1-0.3-1.9-0.6-2.7-1v-3.2h0.2c0.9,0.7,1.9,1.2,3,1.6c1.1,0.4,2.2,0.6,3.2,0.6c1.3,0,2.2-0.2,2.9-0.6c0.7-0.4,1.1-1.1,1.1-1.9
				c0-0.7-0.2-1.2-0.6-1.5c-0.4-0.3-1.1-0.6-2.2-0.9c-0.4-0.1-0.9-0.2-1.6-0.3c-0.7-0.1-1.2-0.3-1.8-0.4c-1.5-0.4-2.5-1-3.2-1.7
				c-0.6-0.8-0.9-1.7-0.9-2.8c0-0.7,0.1-1.4,0.4-2c0.3-0.6,0.7-1.2,1.3-1.7c0.6-0.5,1.3-0.9,2.2-1.1c0.9-0.3,1.9-0.4,2.9-0.4
				c1,0,2,0.1,3.1,0.4c1,0.3,1.9,0.6,2.6,0.9v3.1H218c-0.7-0.5-1.6-1-2.7-1.4c-1-0.4-2.1-0.6-3.1-0.6c-1,0-1.9,0.2-2.6,0.6
				c-0.7,0.4-1.1,1-1.1,1.8c0,0.7,0.2,1.2,0.7,1.6c0.4,0.4,1.1,0.6,2.1,0.9c0.5,0.1,1.1,0.2,1.8,0.4c0.7,0.1,1.2,0.2,1.6,0.3
				c1.3,0.3,2.4,0.8,3.1,1.6C218.5,57.6,218.9,58.6,218.9,59.8"/>
		</g>
		<g>
			<path id="XMLID_67_" class="st0" d="M231.8,64.6c-0.5,0.1-1.1,0.3-1.8,0.4c-0.6,0.1-1.2,0.1-1.7,0.1c-1.7,0-3.1-0.5-4-1.4
				c-0.9-0.9-1.4-2.4-1.4-4.5v-9.1h-2v-2.4h2v-4.9h2.9v4.9h5.9v2.4h-5.9v7.8c0,0.9,0,1.6,0.1,2.1c0,0.5,0.2,1,0.4,1.4
				c0.2,0.4,0.5,0.7,0.9,0.9c0.4,0.2,1,0.3,1.8,0.3c0.5,0,1-0.1,1.5-0.2c0.5-0.1,0.9-0.3,1.1-0.4h0.2V64.6z"/>
		</g>
		<g>
			<path class="st0" d="M243.4,62c-0.8,0.4-1.7,0.6-2.7,0.6c-1.2,0-2.1-0.2-2.7-0.7c-0.6-0.5-0.9-1.2-0.9-2.2c0-0.9,0.3-1.5,0.8-2
				c0.5-0.5,1.2-0.9,2-1.1c0.7-0.2,1.6-0.3,2.8-0.4c1.2-0.1,2.2-0.2,3.1-0.2v4.7C245,61.1,244.2,61.6,243.4,62 M248.5,53.2
				c0-1.1-0.2-2-0.5-2.8c-0.3-0.7-0.8-1.4-1.5-1.8c-0.6-0.5-1.4-0.8-2.3-1c-0.9-0.2-1.9-0.3-3.1-0.3c-1,0-2.1,0.1-3.1,0.3
				c-1.1,0.2-1.9,0.4-2.4,0.5V51h0.2c1-0.4,1.9-0.7,2.9-0.9c0.9-0.2,1.8-0.3,2.5-0.3c0.6,0,1.2,0,1.8,0.1c0.6,0.1,1.1,0.2,1.5,0.5
				c0.4,0.2,0.7,0.6,1,1c0.2,0.4,0.3,1,0.3,1.6v0.4c-1.7,0.1-3.2,0.2-4.7,0.4c-1.4,0.2-2.7,0.5-3.7,0.9c-1,0.5-1.8,1.1-2.4,1.9
				c-0.6,0.8-0.8,1.8-0.8,3.1c0,1.6,0.5,2.9,1.6,3.9c1.1,1,2.4,1.5,3.9,1.5c0.8,0,1.6-0.1,2.2-0.2c0.6-0.2,1.2-0.4,1.6-0.6
				c0.4-0.2,0.8-0.4,1.3-0.7c0.4-0.3,0.8-0.6,1-0.7v1.8h2.9V53.2z"/>
		</g>
		<g>
			<path id="XMLID_64_" class="st0" d="M262.9,64.6c-0.5,0.1-1.1,0.3-1.8,0.4c-0.6,0.1-1.2,0.1-1.7,0.1c-1.7,0-3.1-0.5-4-1.4
				c-0.9-0.9-1.4-2.4-1.4-4.5v-9.1h-2v-2.4h2v-4.9h2.9v4.9h5.9v2.4H257v7.8c0,0.9,0,1.6,0.1,2.1c0,0.5,0.2,1,0.4,1.4
				c0.2,0.4,0.5,0.7,0.9,0.9c0.4,0.2,1,0.3,1.8,0.3c0.5,0,1-0.1,1.5-0.2c0.5-0.1,0.9-0.3,1.1-0.4h0.2V64.6z"/>
		</g>
		<g>
			<path class="st0" d="M268.1,54.3c0.1-1.4,0.6-2.5,1.5-3.4c0.9-0.9,2.1-1.4,3.6-1.4c1.5,0,2.6,0.4,3.4,1.3c0.7,0.8,1.1,2,1.1,3.5
				H268.1z M280.6,54.9c0-2.5-0.6-4.4-1.9-5.7c-1.2-1.3-3-2-5.3-2c-2.5,0-4.5,0.8-6,2.5c-1.5,1.6-2.3,3.8-2.3,6.6
				c0,2.8,0.8,5,2.4,6.5c1.6,1.5,3.8,2.3,6.6,2.3c1.1,0,2.2-0.1,3.2-0.4c1-0.3,2-0.6,3-1v-3.1h-0.2c-0.5,0.4-1.3,0.9-2.5,1.3
				c-1.2,0.5-2.3,0.7-3.5,0.7c-0.9,0-1.7-0.1-2.4-0.4c-0.7-0.2-1.3-0.6-1.9-1.1c-0.5-0.5-1-1.1-1.3-1.9c-0.3-0.8-0.5-1.7-0.5-2.7
				h12.5V54.9z"/>
		</g>
		<g>
			<path id="XMLID_61_" class="st0" d="M297.2,59.8c0,1.6-0.6,2.8-1.9,3.8c-1.3,1-3,1.5-5.3,1.5c-1.3,0-2.4-0.2-3.5-0.5
				c-1.1-0.3-1.9-0.6-2.6-1v-3.2h0.1c0.9,0.7,1.9,1.2,3,1.6c1.1,0.4,2.2,0.6,3.2,0.6c1.3,0,2.2-0.2,2.9-0.6c0.7-0.4,1.1-1.1,1.1-1.9
				c0-0.7-0.2-1.2-0.6-1.5c-0.4-0.3-1.1-0.6-2.2-0.9c-0.4-0.1-0.9-0.2-1.6-0.3c-0.7-0.1-1.3-0.3-1.8-0.4c-1.5-0.4-2.5-1-3.2-1.7
				c-0.6-0.8-0.9-1.7-0.9-2.8c0-0.7,0.1-1.4,0.4-2c0.3-0.6,0.7-1.2,1.3-1.7c0.6-0.5,1.3-0.9,2.2-1.1c0.9-0.3,1.9-0.4,2.9-0.4
				c1,0,2,0.1,3.1,0.4c1,0.3,1.9,0.6,2.6,0.9v3.1h-0.2c-0.7-0.5-1.6-1-2.7-1.4c-1-0.4-2.1-0.6-3.1-0.6c-1,0-1.9,0.2-2.6,0.6
				c-0.7,0.4-1.1,1-1.1,1.8c0,0.7,0.2,1.2,0.7,1.6c0.4,0.4,1.1,0.6,2.1,0.9c0.5,0.1,1.1,0.2,1.8,0.4c0.7,0.1,1.2,0.2,1.6,0.3
				c1.3,0.3,2.3,0.8,3.1,1.6C296.8,57.6,297.2,58.6,297.2,59.8"/>
		</g>
	</g>
	<g id="XMLID_1_">
		<path id="XMLID_50_" class="st0" d="M4.9,13.4H2.8v-0.7H8v0.7H5.8v5.4H4.9V13.4z"/>
		<path id="XMLID_52_" class="st0" d="M8.8,12.4h0.9v2.7h0c0.1-0.2,0.4-0.4,0.6-0.6c0.3-0.1,0.6-0.2,0.9-0.2c0.7,0,1.7,0.4,1.7,1.9
			v2.6h-0.9v-2.5c0-0.7-0.3-1.3-1.2-1.3c-0.6,0-1.1,0.4-1.2,0.8c-0.1,0.1-0.1,0.2-0.1,0.4v2.7H8.8V12.4z"/>
		<path id="XMLID_54_" class="st0" d="M15.3,16.8c0,1.1,0.8,1.5,1.7,1.5c0.6,0,1-0.1,1.4-0.2l0.2,0.6c-0.3,0.1-0.9,0.3-1.7,0.3
			c-1.5,0-2.5-0.9-2.5-2.2c0-1.3,0.9-2.4,2.3-2.4c1.6,0,2.1,1.3,2.1,2.1c0,0.2,0,0.3,0,0.4H15.3z M17.9,16.2c0-0.5-0.2-1.3-1.3-1.3
			c-0.9,0-1.3,0.7-1.4,1.3H17.9z"/>
	</g>
	<g id="home_key_8_">
		<g>
			<path class="st0" d="M32.6,24.8v-2.5h7.1l2.2-3h1.7v-0.7h5.6l1-1.5l0.9,0.2l0.5,1.4H53l0.6-1.3l1.4,0.1l0.3,1.2h0.9l1.1-1.2
				l0.6,1.2h0.9l2.9-2.7l-0.3-0.3H43.6v-0.8h17l-1.1-1H43.6v-0.7h-1.7l-2.2-3h-7.1V7.7l-3.2,3.7h-3.1v2h1.3l-2.6,2.9L32.6,24.8z
				 M36.3,16v-2.4h2.4V16H36.3z M33.3,16v-2.4h2.4V16H33.3z M36.3,18.9v-2.4h2.4v2.4H36.3z M33.3,18.9v-2.4h2.4v2.4H33.3z"/>
		</g>
	</g>
	<g id="XMLID_3_">
		<path id="XMLID_17_" class="st0" d="M70,13.2v1.3h1.3v0.6H70v2.4c0,0.5,0.2,0.9,0.7,0.9c0.2,0,0.4,0,0.5-0.1l0,0.6
			c-0.2,0.1-0.5,0.1-0.8,0.1c-0.4,0-0.8-0.1-1-0.3c-0.3-0.2-0.4-0.6-0.4-1.1v-2.4h-0.8v-0.6h0.8v-1.1L70,13.2z"/>
		<path id="XMLID_19_" class="st0" d="M77.5,16.6c0,1.6-1.3,2.3-2.5,2.3c-1.4,0-2.4-0.9-2.4-2.3c0-1.5,1.1-2.3,2.5-2.3
			C76.6,14.4,77.5,15.3,77.5,16.6z M73.6,16.7c0,1,0.6,1.7,1.5,1.7c0.9,0,1.5-0.7,1.5-1.7c0-0.7-0.4-1.7-1.5-1.7
			C74,15,73.6,15.8,73.6,16.7z"/>
		<path id="XMLID_22_" class="st0" d="M82.7,14.5l1.1,2.6c0.1,0.3,0.2,0.6,0.3,0.9h0c0.1-0.3,0.2-0.6,0.3-0.9l1-2.6h1L85,17.6
			c-0.6,1.5-1.1,2.3-1.7,2.8c-0.4,0.3-0.9,0.5-1.1,0.5L82,20.2c0.2-0.1,0.5-0.2,0.8-0.4c0.2-0.2,0.6-0.5,0.8-0.9
			c0-0.1,0.1-0.1,0.1-0.2s0-0.1-0.1-0.2l-1.8-4H82.7z"/>
		<path id="XMLID_24_" class="st0" d="M92.4,16.6c0,1.6-1.3,2.3-2.5,2.3c-1.4,0-2.4-0.9-2.4-2.3c0-1.5,1.1-2.3,2.5-2.3
			C91.4,14.4,92.4,15.3,92.4,16.6z M88.4,16.7c0,1,0.6,1.7,1.5,1.7c0.9,0,1.5-0.7,1.5-1.7c0-0.7-0.4-1.7-1.5-1.7
			C88.9,15,88.4,15.8,88.4,16.7z"/>
		<path id="XMLID_27_" class="st0" d="M98.4,17.7c0,0.5,0,0.9,0,1.2h-0.8l-0.1-0.7h0c-0.2,0.4-0.8,0.8-1.6,0.8
			c-0.8,0-1.7-0.4-1.7-1.9v-2.6h0.9v2.4c0,0.8,0.3,1.4,1.1,1.4c0.6,0,1-0.4,1.2-0.7c0.1-0.1,0.1-0.3,0.1-0.4v-2.7h0.9V17.7z"/>
		<path id="XMLID_29_" class="st0" d="M100.7,15.8c0-0.5,0-1,0-1.4h0.8l0,0.9h0c0.2-0.6,0.8-1,1.4-1c0.1,0,0.2,0,0.3,0v0.8
			c-0.1,0-0.2,0-0.3,0c-0.6,0-1.1,0.4-1.2,1c0,0.1,0,0.2,0,0.4v2.3h-0.9V15.8z"/>
		<path id="XMLID_31_" class="st0" d="M107.7,15.7c0-0.5,0-0.8,0-1.2h0.8l0.1,0.7h0c0.2-0.4,0.8-0.8,1.6-0.8c0.7,0,1.8,0.4,1.8,1.9
			v2.6H111v-2.5c0-0.7-0.3-1.3-1.2-1.3c-0.6,0-1.1,0.4-1.2,0.8c0,0.1-0.1,0.2-0.1,0.4v2.6h-0.9V15.7z"/>
		<path id="XMLID_33_" class="st0" d="M114.7,16.8c0,1.1,0.8,1.5,1.7,1.5c0.6,0,1-0.1,1.4-0.2l0.2,0.6c-0.3,0.1-0.9,0.3-1.7,0.3
			c-1.5,0-2.5-0.9-2.5-2.2c0-1.3,0.9-2.4,2.3-2.4c1.6,0,2.1,1.3,2.1,2.1c0,0.2,0,0.3,0,0.4H114.7z M117.3,16.2
			c0-0.5-0.2-1.3-1.3-1.3c-0.9,0-1.3,0.7-1.4,1.3H117.3z"/>
		<path id="XMLID_36_" class="st0" d="M120.5,14.5l0.7,0.9c0.2,0.2,0.3,0.5,0.5,0.7h0c0.2-0.3,0.3-0.5,0.5-0.7l0.7-0.9h1l-1.7,2.1
			l1.8,2.3h-1l-0.7-1c-0.2-0.3-0.4-0.5-0.5-0.8h0c-0.2,0.3-0.3,0.5-0.5,0.8l-0.7,1h-1l1.8-2.2l-1.7-2.2H120.5z"/>
		<path id="XMLID_38_" class="st0" d="M126.8,13.2v1.3h1.3v0.6h-1.3v2.4c0,0.5,0.2,0.9,0.7,0.9c0.2,0,0.4,0,0.5-0.1l0,0.6
			c-0.2,0.1-0.5,0.1-0.8,0.1c-0.4,0-0.8-0.1-1-0.3c-0.3-0.2-0.4-0.6-0.4-1.1v-2.4h-0.8v-0.6h0.8v-1.1L126.8,13.2z"/>
		<path id="XMLID_40_" class="st0" d="M132.8,12.4h0.9v2.7h0c0.1-0.2,0.4-0.4,0.6-0.6c0.3-0.1,0.6-0.2,0.9-0.2
			c0.7,0,1.7,0.4,1.7,1.9v2.6h-0.9v-2.5c0-0.7-0.3-1.3-1.2-1.3c-0.6,0-1.1,0.4-1.2,0.8c-0.1,0.1-0.1,0.2-0.1,0.4v2.7h-0.9V12.4z"/>
		<path id="XMLID_42_" class="st0" d="M143.7,16.6c0,1.6-1.3,2.3-2.5,2.3c-1.4,0-2.4-0.9-2.4-2.3c0-1.5,1.1-2.3,2.5-2.3
			C142.8,14.4,143.7,15.3,143.7,16.6z M139.8,16.7c0,1,0.6,1.7,1.5,1.7c0.9,0,1.5-0.7,1.5-1.7c0-0.7-0.4-1.7-1.5-1.7
			C140.2,15,139.8,15.8,139.8,16.7z"/>
		<path id="XMLID_45_" class="st0" d="M145.6,15.7c0-0.5,0-0.8,0-1.2h0.8l0,0.7h0c0.3-0.4,0.7-0.8,1.6-0.8c0.7,0,1.2,0.4,1.4,0.9h0
			c0.2-0.2,0.4-0.4,0.6-0.6c0.3-0.2,0.6-0.3,1.1-0.3c0.7,0,1.6,0.4,1.6,1.9v2.6h-0.9v-2.5c0-0.8-0.3-1.4-1.1-1.4
			c-0.5,0-0.9,0.3-1.1,0.7c0,0.1-0.1,0.3-0.1,0.4v2.7h-0.9v-2.6c0-0.7-0.4-1.2-1-1.2c-0.6,0-1,0.4-1.1,0.8c-0.1,0.1-0.1,0.3-0.1,0.4
			v2.7h-0.9V15.7z"/>
		<path id="XMLID_47_" class="st0" d="M155.5,16.8c0,1.1,0.8,1.5,1.7,1.5c0.6,0,1-0.1,1.4-0.2l0.2,0.6c-0.3,0.1-0.9,0.3-1.7,0.3
			c-1.5,0-2.5-0.9-2.5-2.2c0-1.3,0.9-2.4,2.3-2.4c1.6,0,2.1,1.3,2.1,2.1c0,0.2,0,0.3,0,0.4H155.5z M158.1,16.2
			c0-0.5-0.2-1.3-1.3-1.3c-0.9,0-1.3,0.7-1.4,1.3H158.1z"/>
	</g>
</g>
</svg>
